solid OpenSCAD_Model
  facet normal -0 0 1
    outer loop
      vertex -82 5 10
      vertex 82 -5 10
      vertex 82 5 10
    endloop
  endfacet
  facet normal 0 0 1
    outer loop
      vertex 82 -5 10
      vertex -82 5 10
      vertex -82 -5 10
    endloop
  endfacet
  facet normal 0 0 -1
    outer loop
      vertex -82 -5 0
      vertex 82 5 0
      vertex 82 -5 0
    endloop
  endfacet
  facet normal -0 0 -1
    outer loop
      vertex 82 5 0
      vertex -82 -5 0
      vertex -82 5 0
    endloop
  endfacet
  facet normal 0 -1 0
    outer loop
      vertex -82 -5 0
      vertex 82 -5 10
      vertex -82 -5 10
    endloop
  endfacet
  facet normal 0 -1 -0
    outer loop
      vertex 82 -5 10
      vertex -82 -5 0
      vertex 82 -5 0
    endloop
  endfacet
  facet normal 1 -0 0
    outer loop
      vertex 82 -5 10
      vertex 82 5 0
      vertex 82 5 10
    endloop
  endfacet
  facet normal 1 0 0
    outer loop
      vertex 82 5 0
      vertex 82 -5 10
      vertex 82 -5 0
    endloop
  endfacet
  facet normal 0 1 -0
    outer loop
      vertex 82 5 0
      vertex -82 5 10
      vertex 82 5 10
    endloop
  endfacet
  facet normal 0 1 0
    outer loop
      vertex -82 5 10
      vertex 82 5 0
      vertex -82 5 0
    endloop
  endfacet
  facet normal -1 0 0
    outer loop
      vertex -82 -5 0
      vertex -82 5 10
      vertex -82 5 0
    endloop
  endfacet
  facet normal -1 -0 0
    outer loop
      vertex -82 5 10
      vertex -82 -5 0
      vertex -82 -5 10
    endloop
  endfacet
endsolid OpenSCAD_Model
